Coordinates
version=1
nRows=15
nColumns=42
inDegrees=yes

Units are S.I. units (second, meters, Newtons, ...)
If the header above contains a line with 'inDegrees', this indicates whether rotational values are in degrees (yes) or radians (no).

endheader
time	pelvis_tilt	pelvis_list	pelvis_rotation	pelvis_tx	pelvis_ty	pelvis_tz	hip_flexion_r	hip_adduction_r	hip_rotation_r	knee_angle_r	knee_adduction_r	knee_angle_r_beta	ankle_angle_r	subtalar_angle_r	mtp_angle_r	hip_flexion_l	hip_adduction_l	hip_rotation_l	knee_angle_l	knee_adduction_l	knee_angle_l_beta	ankle_angle_l	subtalar_angle_l	mtp_angle_l	lumbar_extension	lumbar_bending	lumbar_rotation	arm_flex_r	arm_add_r	arm_rot_r	elbow_flex_r	pro_sup_r	wrist_flex_r	wrist_dev_r	arm_flex_l	arm_add_l	arm_rot_l	elbow_flex_l	pro_sup_l	wrist_flex_l	wrist_dev_l
      1.65000000	      8.68008315	     -0.27912788	     -0.36543494	      0.94604017	      1.00371986	     -0.22631601	     17.42784279	     -5.33344636	     -8.18995913	     22.00044057	      7.31174685	      0.38398012	      1.92095750	     -8.92320737	     -7.51037478	    -20.90466688	     -2.63087212	     -0.58815847	      6.37841809	     11.17869995	      0.11132440	     14.36383010	      0.60532326	     -7.51037478	    -21.04655395	     -0.11184713	     -4.69868207	     -7.63858504	     -5.80964938	    -21.53427220	      8.48497969	     90.00000001	      0.00000000	      0.00000000	     17.87408859	    -19.30372757	     -6.49431779	     41.57992681	     90.00000001	      0.00000000	      0.00000000
      1.66000000	      8.57601370	     -0.24211895	     -0.07725060	      0.96019971	      1.00064186	     -0.22633366	     17.37771299	     -5.31747856	     -9.44892923	     18.56960759	      7.42163406	      0.32410079	      2.31432053	     -7.12579802	     -7.50993860	    -21.60186074	     -2.72397805	     -0.62699714	      6.56127807	     11.20220657	      0.11451591	     15.00528262	      1.11579874	     -7.50993860	    -20.90803917	      0.04916821	     -5.03212033	     -8.39874866	     -5.64604802	    -21.74352426	      8.45151054	     90.00000001	      0.00000000	      0.00000000	     18.47709600	    -19.86442422	     -5.85657701	     42.71197180	     90.00000001	      0.00000000	      0.00000000
      1.67000000	      8.43180541	     -0.16713781	      0.20934180	      0.97446843	      0.99742230	     -0.22633466	     17.42431588	     -5.39691262	    -10.68690630	     15.55723820	      7.71458422	      0.27152503	      2.69889597	     -5.34019108	     -7.50946551	    -22.22187955	     -2.77883892	     -0.61912083	      6.82775577	     11.20523680	      0.11916682	     15.61133412	      1.60264630	     -7.50946551	    -20.72475003	      0.16629428	     -5.34193830	     -9.12354930	     -5.49096967	    -22.01565160	      8.42824177	     90.00000001	      0.00000000	      0.00000000	     19.04596084	    -20.36693772	     -5.30510320	     43.80194724	     90.00000001	      0.00000000	      0.00000000
      1.68000000	      8.04500726	      0.18022047	      0.40365583	      0.98862855	      0.99386910	     -0.22658335	     17.85054798	     -5.84649770	    -11.45083277	     13.05979866	      8.29386935	      0.22793649	      2.96814762	     -4.08799475	     -7.50929773	    -22.49683319	     -2.43454273	     -0.49629076	      7.24365066	     11.06970325	      0.12642555	     16.12996315	      1.79502597	     -7.50929773	    -20.28637623	      0.00151503	     -5.68592744	     -9.81880780	     -5.36474849	    -22.10469612	      8.49103945	     90.00000001	      0.00000000	      0.00000000	     19.56978263	    -20.79961631	     -4.94787171	     44.70837968	     90.00000001	      0.00000000	      0.00000000
      1.69000000	      7.92881026	      0.34703418	      0.70684088	      1.00315406	      0.99071833	     -0.22665621	     17.93149641	     -6.09225135	    -12.29259987	     10.91444582	      8.83177244	      0.19049302	      3.26795086	     -2.82646383	     -7.50912434	    -23.10898468	     -2.39836300	     -0.33103155	      7.60994720	     11.03483738	      0.13281863	     16.57685536	      2.08472159	     -7.50912434	    -20.12866785	      0.03203206	     -6.06073917	    -10.41083525	     -5.25690913	    -22.29043560	      8.51051543	     90.00000001	      0.00000000	      0.00000000	     19.96601050	    -21.27206920	     -4.50120827	     45.74127344	     90.00000001	      0.00000000	      0.00000000
      1.70000000	      7.81618885	      0.39481478	      1.02115676	      1.01794152	      0.98765040	     -0.22666721	     18.04425822	     -6.19347294	    -13.01163228	      9.28117942	      9.32826768	      0.16198714	      3.49931638	     -1.70353424	     -7.50896219	    -23.70880711	     -2.51046448	     -0.13757092	      8.03369350	     11.01073797	      0.14021440	     16.93832523	      2.33163984	     -7.50896219	    -19.94872144	      0.18961150	     -6.41899344	    -10.96388266	     -5.17801500	    -22.55315519	      8.55576469	     90.00000001	      0.00000000	      0.00000000	     20.25454477	    -21.69694428	     -4.13917293	     46.69801088	     90.00000001	      0.00000000	      0.00000000
      1.71000000	      7.87172291	      0.16706513	      1.41855905	      1.03314813	      0.98491742	     -0.22649351	     18.01741918	     -5.94743423	    -13.93020630	      8.24912297	      9.58585587	      0.14397436	      3.79440608	     -0.46867680	     -7.50861143	    -24.48528897	     -3.04167280	     -0.12798836	      8.52072655	     11.10319280	      0.14871473	     17.26746646	      2.79711518	     -7.50861143	    -19.91831308	      0.65375501	     -6.74901901	    -11.36253198	     -5.16242637	    -23.12805243	      8.44025765	     90.00000001	      0.00000000	      0.00000000	     20.43421116	    -22.08417042	     -3.79402622	     47.62226397	     90.00000001	      0.00000000	      0.00000000
      1.72000000	      7.63814453	      0.20893140	      1.67468901	      1.04809083	      0.98199048	     -0.22645731	     18.40268071	     -5.96339024	    -14.01873039	      7.67010182	      9.82703433	      0.13386853	      3.91549773	      0.10879803	     -7.50846584	    -24.82220184	     -3.14324875	      0.20908339	      9.20678526	     11.05069969	      0.16068872	     17.45168628	      2.88589287	     -7.50846584	    -19.61000144	      0.80736318	     -7.02782682	    -11.75958025	     -5.14086483	    -23.33324754	      8.48549918	     90.00000001	      0.00000000	      0.00000000	     20.59672124	    -22.32748742	     -3.68629772	     48.36209541	     90.00000001	      0.00000000	      0.00000000
      1.73000000	      7.45570512	      0.16806524	      1.83639282	      1.06322585	      0.97934135	     -0.22632929	     18.83503062	     -5.83407825	    -13.87708913	      7.71154004	      9.90971985	      0.13459176	      3.89427577	      0.29687948	     -7.50839851	    -25.24980553	     -3.29484646	      0.57099309	      9.82872937	     10.97967460	      0.17154369	     17.39969027	      2.94895012	     -7.50839851	    -19.34970785	      1.04133257	     -7.16530848	    -12.11021864	     -5.19123023	    -23.42520345	      8.53738320	     90.00000001	      0.00000000	      0.00000000	     20.76639682	    -22.44336640	     -3.67524317	     48.83176210	     90.00000001	      0.00000000	      0.00000000
      1.74000000	      7.31096690	      0.04898675	      2.06957525	      1.07859635	      0.97697811	     -0.22623262	     19.15983826	     -5.60502916	    -13.50830908	      8.02885576	      9.87692253	      0.14012997	      3.76704528	      0.43299055	     -7.50833847	    -25.64923446	     -3.55991443	      1.05618934	     10.57384828	     10.91298282	      0.18454847	     17.27161944	      2.98234239	     -7.50833847	    -19.11065545	      1.38792003	     -7.37193428	    -12.38110200	     -5.26563165	    -23.52503086	      8.61268818	     90.00000001	      0.00000000	      0.00000000	     20.75589952	    -22.56973253	     -3.67416349	     49.28463079	     90.00000001	      0.00000000	      0.00000000
      1.75000000	      7.27146700	     -0.64922034	      2.65104315	      1.09444747	      0.97504539	     -0.22556640	     19.20379579	     -4.69010322	    -13.60627730	      8.46702161	      9.53222521	      0.14777740	      3.14112485	     -0.00945040	     -7.50792780	    -25.93931849	     -4.81476956	      1.21452770	     11.80244176	     11.18207324	      0.20599147	     17.20252997	      3.04851145	     -7.50792780	    -18.92662832	      2.35197273	     -7.80850582	    -12.28238916	     -5.33303854	    -24.53861108	      8.21577454	     90.00000001	      0.00000000	      0.00000000	     20.29992032	    -22.82974191	     -3.69659146	     50.26702937	     90.00000001	      0.00000000	      0.00000000
      1.76000000	      7.15313979	     -0.92795804	      2.86282132	      1.11018732	      0.97329239	     -0.22516220	     19.57646123	     -4.28351195	    -13.23480243	      9.63488775	      9.34716335	      0.16816051	      2.43504138	     -0.42973234	     -7.50781195	    -26.19753286	     -5.29682807	      1.58829580	     12.87949909	     11.17396245	      0.22478967	     16.67002574	      2.90350540	     -7.50781195	    -18.69331099	      2.84134179	     -7.97108395	    -12.36236743	     -5.44311796	    -24.64357114	      8.25147065	     90.00000001	      0.00000000	      0.00000000	     20.00026995	    -22.85663771	     -3.85221422	     50.71221198	     90.00000001	      0.00000000	      0.00000000
      1.77000000	      6.99952492	     -1.38492524	      3.12638496	      1.12621518	      0.97187520	     -0.22472538	     19.96243152	     -3.72785327	    -12.96110758	     11.04648770	      9.13421469	      0.19279758	      1.31496749	     -1.16371182	     -7.50767890	    -26.32141912	     -6.00421909	      1.92314916	     14.12998147	     11.20460847	      0.24661470	     15.94282501	      2.59427934	     -7.50767890	    -18.39012799	      3.54139518	     -8.14515505	    -12.33878748	     -5.61731772	    -24.78595207	      8.21047518	     90.00000001	      0.00000000	      0.00000000	     19.52782761	    -22.81711180	     -4.10147430	     51.08545191	     90.00000001	      0.00000000	      0.00000000
      1.78000000	      6.87554824	     -2.16468607	      3.41853592	      1.14229484	      0.97106766	     -0.22399276	     20.02021397	     -2.73672808	    -11.85472870	     11.88491496	      8.98464294	      0.20743090	     -0.86716845	     -3.87189219	     -7.50710183	    -26.34521874	     -7.14338271	      2.15067170	     15.58344517	     11.41616248	      0.27198243	     15.04761123	      2.23534050	     -7.50710183	    -18.10757842	      4.57490207	     -8.24242177	    -12.00438775	     -5.82328541	    -25.83065494	      7.83131140	     90.00000001	      0.00000000	      0.00000000	     19.00602903	    -22.63798258	     -4.46929144	     51.25672077	     90.00000001	      0.00000000	      0.00000000
      1.79000000	      6.88600045	     -2.63956484	      3.51721640	      1.15855179	      0.97080877	     -0.22345768	     20.26680648	     -2.21914945	    -11.67736279	     13.74271395	      8.80568047	      0.23985561	     -2.25125118	     -4.48058461	     -7.50699333	    -26.47780070	     -7.76372651	      2.28334132	     17.09114681	     11.40321210	      0.29829678	     13.58141239	      1.76369064	     -7.50699333	    -17.99843287	      5.27458373	     -8.24154548	    -11.83700524	     -6.04436488	    -25.78026005	      7.88944790	     90.00000001	      0.00000000	      0.00000000	     18.40862498	    -22.42825330	     -4.78356762	     51.32607842	     90.00000001	      0.00000000	      0.00000000
